<?xml version="1.0" encoding="utf-8"?>
<!-- Generator: Adobe Illustrator 23.0.3, SVG Export Plug-In . SVG Version: 6.00 Build 0)  -->
<svg version="1.1" id="Layer_1" xmlns="http://www.w3.org/2000/svg" xmlns:xlink="http://www.w3.org/1999/xlink" x="0px" y="0px"
	 width="347.7px" height="92.6px" viewBox="0 0 347.7 92.6" style="enable-background:new 0 0 347.7 92.6;" xml:space="preserve">
<g>
	<path d="M2.6,53.9L9.1,46c4.5,3.7,9.3,6.1,15,6.1c4.5,0,7.3-1.8,7.3-4.8v-0.1c0-2.8-1.7-4.2-10.2-6.4C11.2,38.2,4.6,35.4,4.6,25.4
		v-0.1c0-9.1,7.3-15.2,17.6-15.2c7.3,0,13.6,2.3,18.7,6.4l-5.8,8.4c-4.5-3.1-8.9-5-13.1-5s-6.5,1.9-6.5,4.4v0.1
		c0,3.3,2.2,4.4,10.9,6.6c10.2,2.7,16,6.3,16,15.1v0.1c0,10-7.6,15.6-18.5,15.6C16.3,61.9,8.6,59.3,2.6,53.9z"/>
	<path d="M52.1,10.8h10.2l23.6,31v-31h10.9v50.4h-9.4l-24.4-32v32H52.1V10.8z"/>
	<path d="M109,10.8h11.1v40.3h25.1v10.1H109V10.8z"/>
	<path d="M153.6,10.8h19.7c15.8,0,26.8,10.9,26.8,25.1V36c0,14.2-10.9,25.2-26.8,25.2h-19.7V10.8z M173.2,51.2
		c9.1,0,15.2-6.1,15.2-15V36c0-8.9-6.1-15.2-15.2-15.2h-8.6v30.4H173.2z"/>
	<path d="M223.6,10.4h10.2l21.6,50.8h-11.6l-4.6-11.3h-21.3l-4.6,11.3H202L223.6,10.4z M235.2,40.1l-6.7-16.3l-6.7,16.3H235.2z"/>
	<path d="M268.4,21h-15.3V10.8h41.8V21h-15.3v40.2h-11.1V21z"/>
	<path d="M314.1,10.4h10.2L346,61.2h-11.6l-4.6-11.3h-21.3l-4.6,11.3h-11.3L314.1,10.4z M325.8,40.1l-6.7-16.3l-6.7,16.3H325.8z"/>
	<path d="M17.1,78.4h6.5v3.1h-6.5V78.4z"/>
	<path d="M37.8,71.6h3L47,86.4h-3.4l-1.3-3.3h-6.2l-1.3,3.3h-3.3L37.8,71.6z M41.2,80.2l-2-4.8l-2,4.8H41.2z"/>
	<path d="M55.4,71.1h3.2v15.3h-3.2V71.1z"/>
	<path d="M61.7,71.1H65v2.8h-3.4V71.1z M61.8,75.1H65v11.3h-3.2V75.1z"/>
	<path d="M68,88.6l1.1-2.4c1.2,0.7,2.3,1,3.8,1c2.2,0,3.2-1,3.2-3.1v-0.5c-0.9,1.1-2,1.8-3.7,1.8c-2.6,0-5-1.9-5-5.2v0
		c0-3.4,2.4-5.2,5-5.2c1.7,0,2.8,0.7,3.6,1.7v-1.5h3.2v8.7c0,2-0.5,3.5-1.4,4.4c-1,1-2.7,1.5-4.9,1.5C71.2,89.8,69.5,89.4,68,88.6z
		 M76.1,80.2L76.1,80.2c0-1.6-1.2-2.6-2.8-2.6s-2.7,1.1-2.7,2.6v0c0,1.6,1.2,2.6,2.7,2.6S76.1,81.8,76.1,80.2z"/>
	<path d="M82.1,71.1h3.2v5.7c0.7-0.9,1.7-1.8,3.3-1.8c2.4,0,3.8,1.6,3.8,4.2v7.3h-3.2v-6.3c0-1.5-0.7-2.3-1.9-2.3s-2,0.8-2,2.3v6.3
		h-3.2V71.1z"/>
	<path d="M95.7,83.2v-5.3h-1.3v-2.7h1.3v-2.9h3.2v2.9h2.6v2.7h-2.6v4.8c0,0.7,0.3,1.1,1,1.1c0.6,0,1.1-0.1,1.6-0.4v2.6
		c-0.7,0.4-1.4,0.7-2.5,0.7C97.1,86.6,95.7,85.8,95.7,83.2z"/>
	<path d="M103,75.1h3.2l1.8,6.8l2.1-6.9h2.8l2.1,6.9l1.8-6.8h3.2l-3.5,11.3h-2.9l-2.2-6.9l-2.2,6.9h-2.9L103,75.1z"/>
	<path d="M120.9,80.8L120.9,80.8c0-3.3,2.3-5.9,5.6-5.9c3.8,0,5.5,2.9,5.5,6.1c0,0.3,0,0.5,0,0.8h-7.8c0.3,1.4,1.3,2.2,2.8,2.2
		c1.1,0,1.8-0.3,2.7-1.2l1.8,1.6c-1,1.3-2.6,2.1-4.6,2.1C123.4,86.7,120.9,84.3,120.9,80.8z M128.9,79.9c-0.2-1.4-1-2.4-2.4-2.4
		c-1.3,0-2.2,0.9-2.4,2.4H128.9z"/>
	<path d="M134.4,71.1h3.4v2.8h-3.4V71.1z M134.5,75.1h3.2v11.3h-3.2V75.1z"/>
	<path d="M140.8,88.6l1.1-2.4c1.2,0.7,2.3,1,3.8,1c2.2,0,3.2-1,3.2-3.1v-0.5c-0.9,1.1-2,1.8-3.7,1.8c-2.6,0-5-1.9-5-5.2v0
		c0-3.4,2.4-5.2,5-5.2c1.7,0,2.8,0.7,3.6,1.7v-1.5h3.2v8.7c0,2-0.5,3.5-1.4,4.4c-1,1-2.7,1.5-4.9,1.5
		C143.9,89.8,142.2,89.4,140.8,88.6z M148.9,80.2L148.9,80.2c0-1.6-1.2-2.6-2.8-2.6s-2.7,1.1-2.7,2.6v0c0,1.6,1.2,2.6,2.7,2.6
		S148.9,81.8,148.9,80.2z"/>
	<path d="M154.9,71.1h3.2v5.7c0.7-0.9,1.7-1.8,3.3-1.8c2.4,0,3.8,1.6,3.8,4.2v7.3H162v-6.3c0-1.5-0.7-2.3-1.9-2.3s-2,0.8-2,2.3v6.3
		h-3.2V71.1z"/>
	<path d="M168.5,83.2v-5.3h-1.3v-2.7h1.3v-2.9h3.2v2.9h2.6v2.7h-2.6v4.8c0,0.7,0.3,1.1,1,1.1c0.6,0,1.1-0.1,1.6-0.4v2.6
		c-0.7,0.4-1.4,0.7-2.5,0.7C169.8,86.6,168.5,85.8,168.5,83.2z"/>
	<path d="M183.3,71.7h6c3.5,0,5.6,2.1,5.6,5.1v0c0,3.4-2.6,5.2-5.9,5.2h-2.5v4.4h-3.2V71.7z M189.1,79.1c1.6,0,2.6-1,2.6-2.2v0
		c0-1.4-1-2.2-2.6-2.2h-2.5v4.5H189.1z"/>
	<path d="M197.1,89l1.1-2.3c0.4,0.3,0.9,0.4,1.4,0.4c0.5,0,0.8-0.2,1.1-0.7l-4.4-11.3h3.4l2.6,7.7l2.5-7.7h3.3l-4.3,11.5
		c-0.9,2.3-1.8,3.1-3.7,3.1C198.7,89.8,197.9,89.5,197.1,89z"/>
	<path d="M210.3,83.2v-5.3H209v-2.7h1.3v-2.9h3.2v2.9h2.6v2.7h-2.6v4.8c0,0.7,0.3,1.1,1,1.1c0.6,0,1.1-0.1,1.6-0.4v2.6
		c-0.7,0.4-1.4,0.7-2.5,0.7C211.7,86.6,210.3,85.8,210.3,83.2z"/>
	<path d="M218.5,71.1h3.2v5.7c0.7-0.9,1.7-1.8,3.3-1.8c2.4,0,3.8,1.6,3.8,4.2v7.3h-3.2v-6.3c0-1.5-0.7-2.3-1.9-2.3s-2,0.8-2,2.3v6.3
		h-3.2V71.1z"/>
	<path d="M231.1,80.8L231.1,80.8c0-3.3,2.6-5.9,6.1-5.9c3.5,0,6.1,2.6,6.1,5.8v0c0,3.2-2.6,5.9-6.1,5.9
		C233.6,86.7,231.1,84.1,231.1,80.8z M240.1,80.8L240.1,80.8c0-1.7-1.2-3.1-3-3.1c-1.8,0-2.9,1.4-2.9,3.1v0c0,1.7,1.2,3.1,3,3.1
		C239,83.9,240.1,82.5,240.1,80.8z"/>
	<path d="M245.6,75.1h3.2v1.6c0.7-0.9,1.7-1.8,3.3-1.8c2.4,0,3.8,1.6,3.8,4.2v7.3h-3.2v-6.3c0-1.5-0.7-2.3-1.9-2.3s-2,0.8-2,2.3v6.3
		h-3.2V75.1z"/>
	<path d="M265.1,71.1h3.2v15.3h-3.2V71.1z"/>
	<path d="M271.3,71.1h3.4v2.8h-3.4V71.1z M271.4,75.1h3.2v11.3h-3.2V75.1z"/>
	<path d="M280.8,84.9v1.5h-3.2V71.1h3.2v5.7c0.8-1,1.8-1.8,3.5-1.8c2.6,0,5.1,2.1,5.1,5.8v0c0,3.8-2.5,5.8-5.1,5.8
		C282.6,86.6,281.6,85.8,280.8,84.9z M286.3,80.8L286.3,80.8c0-1.9-1.3-3.1-2.8-3.1c-1.5,0-2.7,1.2-2.7,3.1v0c0,1.9,1.2,3.1,2.7,3.1
		C285,83.9,286.3,82.7,286.3,80.8z"/>
	<path d="M291.8,75.1h3.2v2.3c0.7-1.6,1.7-2.6,3.6-2.5v3.3h-0.2c-2.1,0-3.4,1.3-3.4,4v4.2h-3.2V75.1z"/>
	<path d="M299.4,83.2L299.4,83.2c0-2.5,1.9-3.6,4.5-3.6c1.1,0,2,0.2,2.8,0.5v-0.2c0-1.3-0.8-2.1-2.4-2.1c-1.2,0-2.1,0.2-3.1,0.6
		l-0.8-2.4c1.2-0.5,2.5-0.9,4.4-0.9c1.7,0,3,0.5,3.8,1.3c0.8,0.8,1.2,2.1,1.2,3.6v6.5h-3.1v-1.2c-0.8,0.9-1.8,1.4-3.4,1.4
		C301.1,86.6,299.4,85.4,299.4,83.2z M306.7,82.4v-0.6c-0.5-0.3-1.3-0.4-2-0.4c-1.4,0-2.2,0.5-2.2,1.6v0c0,0.9,0.7,1.4,1.7,1.4
		C305.7,84.4,306.7,83.6,306.7,82.4z"/>
	<path d="M312.5,75.1h3.2v2.3c0.7-1.6,1.7-2.6,3.6-2.5v3.3h-0.2c-2.1,0-3.4,1.3-3.4,4v4.2h-3.2V75.1z"/>
	<path d="M321.1,89l1.1-2.3c0.4,0.3,0.9,0.4,1.4,0.4c0.5,0,0.8-0.2,1.1-0.7l-4.4-11.3h3.4l2.6,7.7l2.5-7.7h3.3l-4.3,11.5
		c-0.9,2.3-1.8,3.1-3.7,3.1C322.8,89.8,321.9,89.5,321.1,89z"/>
</g>
</svg>
